<?xml version="1.0" standalone="yes"?>
<svg width="50" height="50">
<path style="fill:#000000; stroke:none;" d="M0 0L0 5L1 5L5 1L0 0z"/>
<path style="fill:#0091ff; stroke:none;" d="M5.04398 0.742283C-4.15156 4.4895 -0.00316182 28.8046 0 37C0.00131099 40.3981 -0.586722 44.8583 1.74228 47.6821C4.33312 50.8234 9.39405 49.9998 13 50C22.2887 50.0006 38.3268 53.1187 46.8519 49.3966C50.7764 47.6831 49.9984 42.499 50 39C50.0037 30.8276 53.8698 8.73185 48.3966 2.43364C45.8894 -0.451553 41.433 0.00574112 38 0C28.6186 -0.0156822 13.7727 -2.8147 5.04398 0.742283z"/>
<path style="fill:#000000; stroke:none;" d="M46 0L46 1L50 3L46 0z"/>
<path style="fill:#ffffff; stroke:none;" d="M9 20L13 20L13 12L21 12L21 8C10.5589 8 9 9.55891 9 20M31 8L31 12L39 12L39 20L43 20C43 9.5589 41.4411 8 31 8M9 30C9 40.4411 10.5589 42 21 42L21 38L13 38L13 30L9 30M39 30L39 38L31 38L31 42C41.4411 42 43 40.4411 43 30L39 30z"/>
<path style="fill:#000000; stroke:none;" d="M0 46L3 50L0 46M49 48L48 50L50 50L49 48z"/>
</svg>
